<?xml version="1.0" standalone="no"?>
<!DOCTYPE svg PUBLIC "-//W3C//DTD SVG 1.0//EN" "http://www.w3.org/TR/2001/REC-SVG-20010904/DTD/svg10.dtd">
<svg xmlns="http://www.w3.org/2000/svg" xmlns:xlink="http://www.w3.org/1999/xlink" id="body_1" width="54" height="40">

<g transform="matrix(0.1597633 0 0 0.15810278 0 0)">
	<g transform="matrix(1.0039682 0 0 1.0039682 42.5 -0)">
		<g>
            <path d="M0 126C 0 195.6 56.5 252 126 252C 195.5 252 252 195.6 252 126C 252 56.399994 195.6 0 126 0C 56.399994 0 0 56.4 0 126z" stroke="none" fill="#192E45" fill-rule="nonzero" />
			<g>
                <path d="M23.9 96.6L16.8 111L26.4 97.6C 26.4 97.7 25.8 116.899994 25.8 116.899994L25.8 116.899994L28.5 102.399994C 35.7 116.09999 51.6 137.2 73.9 152.9C 75.6 154.09999 77.8 156.2 78.5 157C 78.5 157 99.8 167.8 132.6 142.8C 132.90001 142.6 133.3 142.40001 133.6 142.2L133.6 142.2L134.1 142.5L141.3 147.3C 138.8 146.6 134 145.40001 134 145.40001C 118.2 163.6 92.5 166.6 78.7 157.40001C 78.1 157.00002 74.7 158.40001 74.1 160.40001C 73.7 161.50002 74.1 162.70001 74.6 163.6C 77.4 168.8 81.6 168.3 79.6 174.40001C 78.2 177.70001 76.2 180.90001 74 183.90001C 69.4 190.1 62.2 195.6 62.9 198.90001C 95.5 239.1 169 233.5 197 197.6C 196.6 192.40001 188.4 189.90001 182.7 177.20001C 184.3 177.70001 186.7 178.40001 186.7 178.30002C 186.7 178.20001 179.9 167.20001 179.59999 166.10002L179.59999 166.10002L183.99998 166.40002C 183.99998 166.40002 178.19998 159.20003 177.99998 158.50003L177.99998 158.50003L183.89998 157.70003C 183.89998 157.70003 176.49998 149.20003 176.39998 148.50003L176.39998 148.50003L183.89998 149.70003L175.69998 139.80003L179.59998 139.80003L174.99997 133.10004L137.69997 118.40004C 123.39996 109.50004 110.69997 98.60004 101.09997 90.20004L101.09997 90.20004L81.79997 80.80004C 63.3 79.4 46 79.9 35.4 82L35.4 82L42.2 70.4L32.300003 82.200005C 31.7 82 31 81.8 31 81.8L31 81.8L31.7 66.8L28.400002 80.8L23.9 96.6z" stroke="none" fill="#D2943B" fill-rule="nonzero" />
                <path d="M28.4 80.8C 23.5 78.5 17.8 81.8 16.8 86.3C 15.599999 90.600006 18.599998 95.9 23.9 96.600006C 28.9 93.5 33.2 85.5 28.4 80.8z" stroke="none" fill="#FFCD86" fill-rule="nonzero" />
			</g>
			<g>
                <path d="M101.2 69.9C 99.7 65.8 100.1 60.5 102.2 55.5C 105.2 48.6 110.899994 44 116.299995 44C 117.399994 44 118.399994 44.2 119.399994 44.6C 122.49999 41.8 126.09999 39.5 130.09999 37.899998C 152.09999 29.099998 184.4 44.8 192.69998 66.399994C 196.69998 76.899994 195.49998 88.299995 192.09998 98.799995C 189.29997 107.399994 179.09998 119.799995 182.89998 129.09999C 181.39998 128.7 150.09998 118.09999 141.09998 113.29999C 126.99998 104.499985 114.39998 93.69999 104.89998 85.39999L104.89998 85.39999L104.599976 85.09998L72.599976 69.89999C 72.199974 69.69999 71.79997 69.499985 71.49998 69.29999C 75.9 69.5 93.4 71.6 101.2 69.9" stroke="none" fill="#FFD524" fill-rule="nonzero" />
				<g>
                    <path transform="matrix(0.4007 -0.9162 0.9162 0.4007 12.8553 140.4693)"  d="M100.200005 60.4C 100.200005 55.926495 106.28893 52.300003 113.8 52.300003C 121.31107 52.300003 127.4 55.926495 127.4 60.4C 127.4 64.873505 121.31107 68.5 113.8 68.5C 106.28893 68.5 100.200005 64.873505 100.200005 60.4" stroke="none" fill="#FFFFFF" fill-rule="nonzero" />
                    <path d="M120.1 46.1C 114.799995 43.8 107.7 48.3 104.2 56.199997C 100.7 64.09999 102.299995 72.299995 107.6 74.7C 112.9 77 120 72.5 123.5 64.6C 127 56.699997 125.4 48.5 120.1 46.1zM120.6 63.4C 117.799995 69.700005 112.5 73.5 108.799995 71.9C 104.99999 70.200005 104.2 63.800003 106.99999 57.4C 109.799995 51.100002 115.09999 47.300003 118.899994 48.9C 122.6 50.6 123.4 57.1 120.6 63.4z" stroke="none" fill="#192E45" fill-rule="nonzero" />
				</g>
			</g>
		</g>
	</g>
</g>
</svg>